<svg xmlns="http://www.w3.org/2000/svg" version="1.1" xmlns:xlink="http://www.w3.org/1999/xlink" xmlns:svgjs="http://svgjs.dev/svgjs" width="1500" height="625" viewBox="0 0 1500 625"><g transform="matrix(1,0,0,1,-0.9090909090909918,0.5926805650126425)"><svg viewBox="0 0 396 165" data-background-color="#121212" preserveAspectRatio="xMidYMid meet" height="625" width="1500" xmlns="http://www.w3.org/2000/svg" xmlns:xlink="http://www.w3.org/1999/xlink"><g id="tight-bounds" transform="matrix(1,0,0,1,0.2400000000000091,-0.15646766916333377)"><svg viewBox="0 0 395.52 165.31293533832667" height="165.31293533832667" width="395.52"><g><svg viewBox="0 0 395.52 165.31293533832667" height="165.31293533832667" width="395.52"><g><svg viewBox="0 0 395.52 165.31293533832667" height="165.31293533832667" width="395.52"><g><svg viewBox="0 0 395.52 165.31293533832667" height="165.31293533832667" width="395.52"><g transform="matrix(1,0,0,1,0,99.91819430247011)"><svg viewBox="0 0 395.52 65.39474103585657" height="65.39474103585657" width="395.52"><g id="textblocktransform"><svg viewBox="0 0 395.52 65.39474103585657" height="65.39474103585657" width="395.52" id="textblock"><g><svg viewBox="0 0 395.52 65.39474103585657" height="65.39474103585657" width="395.52"><g transform="matrix(1,0,0,1,0,0)"><svg width="395.52" viewBox="2.2 -35.86 220.59 36.47" height="65.39474103585657" data-palette-color="#e1410d"><path d="M18.92 0.61L18.92 0.61Q13.84 0.61 10.08-1.34 6.32-3.3 4.26-7.23 2.2-11.16 2.2-17.04L2.2-17.04Q2.2-26.39 6.76-30.99 11.33-35.6 19.48-35.6L19.48-35.6Q27.12-35.6 31.57-31.09 36.01-26.59 36.01-17.75L36.01-17.75Q36.01-11.5 33.94-7.43 31.86-3.37 28.03-1.38 24.19 0.61 18.92 0.61ZM19.07-5.98L19.07-5.98Q23.46-5.98 25.59-9.13 27.71-12.28 27.71-17.31L27.71-17.31Q27.71-23.14 25.71-26.07 23.71-29 19.26-29L19.26-29Q10.5-29 10.5-17.46L10.5-17.46Q10.5-12.3 12.61-9.14 14.72-5.98 19.07-5.98ZM49.56-25.29L49.56-1.29Q49.56-0.56 49.28-0.28 49 0 48.29 0L48.29 0 43.38 0Q42.7 0 42.4-0.28 42.11-0.56 42.11-1.29L42.11-1.29 42.11-32.23Q42.11-33.67 42.67-34.34 43.23-35.01 44.65-35.01L44.65-35.01 46.92-35.01Q48.17-35.01 49.28-34.68 50.39-34.35 51.65-33.2 52.9-32.06 54.58-29.65 56.25-27.25 58.62-23.1L58.62-23.1Q60.89-19.14 62.27-16.77 63.64-14.4 64.4-13.16 65.16-11.91 65.54-11.38 65.92-10.84 66.16-10.5L66.16-10.5 66.16-31.1Q66.16-31.81 66.38-32.18L66.38-32.18Q67.43-33.79 69.28-35.57L69.28-35.57Q69.65-35.86 69.89-35.86L69.89-35.86Q70.16-35.86 70.48-35.57L70.48-35.57Q71.48-34.64 72.18-33.8 72.87-32.96 73.39-32.18L73.39-32.18Q73.61-31.79 73.61-31.1L73.61-31.1 73.61-2.03Q73.61-0.93 73.19-0.46 72.78 0 71.68 0L71.68 0 69.33 0Q68.28 0 67.19-0.35 66.09-0.71 64.69-1.97 63.3-3.22 61.4-5.88 59.49-8.54 56.81-13.16L56.81-13.16Q54.54-17.09 53.18-19.41 51.83-21.73 51.12-22.91 50.41-24.1 50.1-24.57 49.78-25.05 49.56-25.29L49.56-25.29ZM99.73 0L87.45 0Q84.93 0 83.63-0.63 82.32-1.27 81.87-2.71 81.42-4.15 81.42-6.54L81.42-6.54 81.42-28.47Q81.42-30.91 81.87-32.34 82.32-33.76 83.63-34.39 84.93-35.01 87.45-35.01L87.45-35.01 98.92-35.01Q99.51-35.01 99.8-34.81L99.8-34.81Q100.43-34.38 101.12-33.76 101.8-33.15 102.56-32.3L102.56-32.3Q102.8-31.98 102.8-31.79L102.8-31.79Q102.8-31.57 102.56-31.3L102.56-31.3Q101.8-30.44 101.12-29.83 100.43-29.22 99.8-28.78L99.8-28.78Q99.46-28.59 98.92-28.59L98.92-28.59 92.08-28.59Q90.47-28.59 89.89-27.91 89.3-27.22 89.3-25.56L89.3-25.56 89.3-20.83 98.07-20.83Q98.65-20.83 98.95-20.63L98.95-20.63Q99.58-20.19 100.26-19.58 100.95-18.97 101.7-18.12L101.7-18.12Q101.95-17.8 101.95-17.6L101.95-17.6Q101.95-17.38 101.7-17.11L101.7-17.11Q100.95-16.26 100.26-15.65 99.58-15.04 98.95-14.6L98.95-14.6Q98.6-14.4 98.07-14.4L98.07-14.4 89.3-14.4 89.3-9.47Q89.3-7.84 89.89-7.13 90.47-6.42 92.08-6.42L92.08-6.42 99.73-6.42Q100.31-6.42 100.61-6.23L100.61-6.23Q101.24-5.79 101.92-5.18 102.61-4.57 103.36-3.71L103.36-3.71Q103.61-3.39 103.61-3.2L103.61-3.2Q103.61-2.98 103.36-2.71L103.36-2.71Q102.61-1.86 101.92-1.25 101.24-0.63 100.61-0.2L100.61-0.2Q100.26 0 99.73 0L99.73 0ZM135.98 0L128.55 0Q126.04 0 124.73-0.63 123.43-1.27 122.98-2.71 122.52-4.15 122.52-6.54L122.52-6.54 122.52-28.47Q122.52-30.91 122.98-32.34 123.43-33.76 124.73-34.39 126.04-35.01 128.55-35.01L128.55-35.01 135.27-35.01Q141.13-35.01 144.28-32.86 147.43-30.71 147.43-26.81L147.43-26.81Q147.43-24.88 146.55-23.29 145.67-21.7 144.24-20.58 142.81-19.46 141.13-18.9L141.13-18.9 141.13-18.8Q143.28-18.51 145.01-17.4 146.74-16.28 147.78-14.51 148.82-12.74 148.82-10.45L148.82-10.45Q148.82-7.03 147.17-4.7 145.52-2.37 142.63-1.18 139.74 0 135.98 0L135.98 0ZM130.41-26.17L130.41-8.86Q130.41-7.23 131-6.52 131.58-5.81 133.19-5.81L133.19-5.81 135.05-5.81Q137.51-5.81 139.02-7.08 140.52-8.35 140.52-10.55L140.52-10.55Q140.52-12.65 139.05-13.84 137.59-15.04 135.27-15.04L135.27-15.04 135.29-15.04Q134.71-15.04 134.41-15.21L134.41-15.21Q133.78-15.63 133.11-16.17 132.44-16.72 131.66-17.5L131.66-17.5Q131.41-17.82 131.41-17.97L131.41-17.97Q131.41-18.16 131.66-18.43L131.66-18.43Q132.44-19.21 133.11-19.78 133.78-20.34 134.41-20.73L134.41-20.73Q134.76-20.9 135.29-20.9L135.29-20.9 135.27-20.9Q136.71-20.9 137.92-21.97 139.13-23.05 139.13-25.34L139.13-25.34Q139.13-27.66 137.83-28.43 136.54-29.2 134.51-29.2L134.51-29.2 133.19-29.2Q131.58-29.2 131-28.52 130.41-27.83 130.41-26.17L130.41-26.17ZM162.56-31.1L162.56-1.29Q162.56-0.56 162.26-0.28 161.95 0 161.22 0L161.22 0 156.02 0Q155.29 0 154.98-0.28 154.68-0.56 154.68-1.29L154.68-1.29 154.68-31.1Q154.68-31.81 154.92-32.18L154.92-32.18Q156.02-33.79 158-35.57L158-35.57Q158.36-35.86 158.63-35.86L158.63-35.86Q158.92-35.86 159.24-35.57L159.24-35.57Q160.31-34.64 161.05-33.8 161.78-32.96 162.32-32.18L162.32-32.18Q162.56-31.79 162.56-31.1L162.56-31.1ZM185.51-28.59L185.51-1.29Q185.51-0.56 185.2-0.28 184.9 0 184.16 0L184.16 0 178.96 0Q178.23 0 177.93-0.28 177.62-0.56 177.62-1.29L177.62-1.29 177.62-28.59 170.35-28.59Q169.76-28.59 169.47-28.78L169.47-28.78Q168.83-29.22 168.16-29.83 167.49-30.44 166.71-31.3L166.71-31.3Q166.46-31.62 166.46-31.81L166.46-31.81Q166.46-32.03 166.71-32.3L166.71-32.3Q167.49-33.15 168.16-33.76 168.83-34.38 169.47-34.81L169.47-34.81Q169.81-35.01 170.35-35.01L170.35-35.01 192.81-35.01Q193.39-35.01 193.69-34.81L193.69-34.81Q194.32-34.38 195-33.76 195.69-33.15 196.44-32.3L196.44-32.3Q196.69-31.98 196.69-31.79L196.69-31.79Q196.69-31.57 196.44-31.3L196.44-31.3Q195.69-30.44 195-29.83 194.32-29.22 193.69-28.78L193.69-28.78Q193.34-28.59 192.81-28.59L192.81-28.59 185.51-28.59ZM218.9 0L206.62 0Q204.11 0 202.8-0.63 201.5-1.27 201.04-2.71 200.59-4.15 200.59-6.54L200.59-6.54 200.59-28.47Q200.59-30.91 201.04-32.34 201.5-33.76 202.8-34.39 204.11-35.01 206.62-35.01L206.62-35.01 218.1-35.01Q218.68-35.01 218.98-34.81L218.98-34.81Q219.61-34.38 220.3-33.76 220.98-33.15 221.74-32.3L221.74-32.3Q221.98-31.98 221.98-31.79L221.98-31.79Q221.98-31.57 221.74-31.3L221.74-31.3Q220.98-30.44 220.3-29.83 219.61-29.22 218.98-28.78L218.98-28.78Q218.63-28.59 218.1-28.59L218.1-28.59 211.26-28.59Q209.65-28.59 209.06-27.91 208.48-27.22 208.48-25.56L208.48-25.56 208.48-20.83 217.24-20.83Q217.83-20.83 218.12-20.63L218.12-20.63Q218.76-20.19 219.44-19.58 220.12-18.97 220.88-18.12L220.88-18.12Q221.13-17.8 221.13-17.6L221.13-17.6Q221.13-17.38 220.88-17.11L220.88-17.11Q220.12-16.26 219.44-15.65 218.76-15.04 218.12-14.6L218.12-14.6Q217.78-14.4 217.24-14.4L217.24-14.4 208.48-14.4 208.48-9.47Q208.48-7.84 209.06-7.13 209.65-6.42 211.26-6.42L211.26-6.42 218.9-6.42Q219.49-6.42 219.78-6.23L219.78-6.23Q220.42-5.79 221.1-5.18 221.78-4.57 222.54-3.71L222.54-3.71Q222.79-3.39 222.79-3.2L222.79-3.2Q222.79-2.98 222.54-2.71L222.54-2.71Q221.78-1.86 221.1-1.25 220.42-0.63 219.78-0.2L219.78-0.2Q219.44 0 218.9 0L218.9 0Z" opacity="1" transform="matrix(1,0,0,1,0,0)" fill="#e1410d" class="wordmark-text-0" data-fill-palette-color="primary" id="text-0"></path></svg></g></svg></g></svg></g></svg></g><g transform="matrix(1,0,0,1,152.44802063700303,0)"><svg viewBox="0 0 90.62395872599396 90.37553211155378" height="90.37553211155378" width="90.62395872599396"><g><svg xmlns="http://www.w3.org/2000/svg" xmlns:xlink="http://www.w3.org/1999/xlink" version="1.1" x="0" y="0" viewBox="10.603 10.71 78.795 78.57900000000001" enable-background="new 0 0 100 100" xml:space="preserve" height="90.37553211155378" width="90.62395872599396" class="icon-icon-0" data-fill-palette-color="accent" id="icon-0"><path d="M79.236 48.382l0.658-0.06c-0.788-8.699-8.871-15.436-18.464-15.436-0.087 0-0.174 0-0.262 0.001-4.615 0.071-8.927 1.653-12.273 4.446-2.482-1.072-5.251-1.667-8.155-1.635-3.933 0.053-7.573 1.193-10.561 3.13L23.373 10.71l-2.916 0.706 7.131 29.46c-1.294 1.228-2.397 2.632-3.239 4.194L13.462 21.673l-2.72 1.266 11.839 25.443H10.603v1.5c0 21.729 17.671 39.407 39.393 39.407 21.727 0 39.402-17.678 39.402-39.407v-1.5H79.236zM61.212 35.888c0.074-0.001 0.148-0.001 0.224-0.001 7.967 0 14.678 5.438 15.44 12.495H58.938c-1.092-3.894-3.678-7.224-7.151-9.494C54.453 37.003 57.726 35.942 61.212 35.888zM40.779 38.7c6.995-0.095 13.013 3.982 15.02 9.683H26.172C28.171 42.781 34.059 38.791 40.779 38.7zM49.995 86.29c-19.565 0-35.573-15.524-36.362-34.907h42.836c0.001 0.004 0.002 0.008 0.002 0.012l0.13-0.012h29.767C85.578 70.765 69.564 86.29 49.995 86.29z" fill="#e1410d" data-fill-palette-color="accent"></path></svg></g></svg></g><g></g></svg></g></svg></g></svg></g><defs></defs></svg><rect width="395.52" height="165.31293533832667" fill="none" stroke="none" visibility="hidden"></rect></g></svg></g></svg>